
<svg width="196" height="196" viewBox="0 0 196 196" fill="none" xmlns="http://www.w3.org/2000/svg">
<rect width="196" height="196" fill="white"/>
<rect x="148" y="18" width="32" height="32" fill="black"/>
<path d="M18 30C18 24.4772 22.4772 20 28 20H152C166.359 20 178 31.6406 178 46V170C178 175.523 173.523 180 168 180H28C22.4772 180 18 175.523 18 170V30Z" fill="white" stroke="black" stroke-width="4"/>
<path d="M38.304 144V62.24H64.624C69.7013 62.24 74.1067 63.248 77.84 65.264C81.5733 67.2053 84.448 69.968 86.464 73.552C88.5547 77.136 89.6 81.392 89.6 86.32C89.6 91.1733 88.5547 95.4293 86.464 99.088C84.448 102.672 81.5733 105.472 77.84 107.488C74.1067 109.429 69.7013 110.4 64.624 110.4H48.384V144H38.304ZM48.384 101.328H64.624C69.0293 101.328 72.5387 99.984 75.152 97.296C77.84 94.5333 79.184 90.8747 79.184 86.32C79.184 81.6907 77.84 78.032 75.152 75.344C72.5387 72.656 69.0293 71.312 64.624 71.312H48.384V101.328ZM135.476 144C130.175 144 126.031 142.581 123.044 139.744C120.132 136.907 118.676 132.912 118.676 127.76V91.584H101.316V82.4H118.676V65.04H128.756V82.4H153.396V91.584H128.756V127.76C128.756 132.464 130.996 134.816 135.476 134.816H152.276V144H135.476Z" fill="black"/>
</svg>
